<svg aria-hidden="true" style="position: absolute; width: 0; height: 0; overflow: hidden;" version="1.1" xmlns="http://www.w3.org/2000/svg" xmlns:xlink="http://www.w3.org/1999/xlink">
<defs>
<symbol id="icon-logo" viewBox="0 0 40 32">
<path fill="#b80202" style="fill: var(--color1, #b80202)" d="M11.027 16.293c-1.951-0.45-2.926-1.285-2.926-2.505 0-0.9 0.314-1.575 0.942-2.025 0.628-0.44 1.364-0.661 2.209-0.661 1.867 0 2.973 0.694 3.32 2.081h-1.070c-0.188-0.825-0.938-1.237-2.25-1.237-0.92 0-1.562 0.272-1.927 0.815-0.142 0.207-0.212 0.465-0.212 0.775 0 0.591 0.319 1.046 0.957 1.364 0.3 0.159 0.938 0.366 1.914 0.619 0.975 0.253 1.683 0.534 2.125 0.843 0.609 0.432 0.914 1.037 0.914 1.815 0 0.966-0.38 1.698-1.139 2.196-0.638 0.412-1.427 0.618-2.365 0.618-2.12 0-3.348-0.806-3.686-2.419h1.169c0.178 1.013 1.017 1.52 2.517 1.52 1.070 0 1.815-0.296 2.237-0.888 0.169-0.234 0.253-0.552 0.253-0.955 0-0.394-0.155-0.717-0.464-0.97-0.442-0.356-1.281-0.685-2.519-0.985z"></path>
<path fill="#b80202" style="fill: var(--color1, #b80202)" d="M19.876 21.385l-4.347-10.142h1.070l3.277 7.71 3.264-7.71h1.070l-4.334 10.142z"></path>
<path fill="#b80202" style="fill: var(--color1, #b80202)" d="M28.065 16.293c-1.951-0.45-2.926-1.285-2.926-2.505 0-0.9 0.314-1.575 0.942-2.025 0.628-0.44 1.364-0.661 2.209-0.661 1.867 0 2.973 0.694 3.32 2.081h-1.070c-0.188-0.825-0.938-1.237-2.251-1.237-0.92 0-1.562 0.272-1.927 0.815-0.141 0.207-0.212 0.465-0.212 0.775 0 0.591 0.319 1.046 0.957 1.364 0.3 0.159 0.938 0.366 1.914 0.619 0.974 0.253 1.683 0.534 2.124 0.843 0.61 0.432 0.914 1.037 0.914 1.815 0 0.966-0.38 1.698-1.139 2.196-0.638 0.412-1.427 0.618-2.365 0.618-2.12 0-3.348-0.806-3.686-2.419h1.169c0.178 1.013 1.017 1.52 2.517 1.52 1.070 0 1.815-0.296 2.237-0.888 0.169-0.234 0.253-0.552 0.253-0.955 0-0.394-0.155-0.717-0.463-0.97-0.442-0.356-1.281-0.685-2.519-0.985z"></path>
<path fill="#b80202" style="fill: var(--color1, #b80202)" d="M6.86 8.964h0.454c0.108 0 0.204 0.021 0.286 0.063s0.149 0.099 0.195 0.174c0.046 0.075 0.070 0.163 0.070 0.263s-0.023 0.187-0.070 0.262c-0.046 0.075-0.112 0.134-0.195 0.176s-0.178 0.061-0.286 0.061h-0.454v-0.998zM7.302 9.772c0.1 0 0.18-0.027 0.238-0.083s0.089-0.13 0.089-0.225c0-0.095-0.030-0.17-0.089-0.225s-0.138-0.084-0.238-0.084h-0.21v0.618h0.21z"></path>
<path fill="#b80202" style="fill: var(--color1, #b80202)" d="M8.53 8.964h0.232v0.998h-0.232v-0.998z"></path>
<path fill="#b80202" style="fill: var(--color1, #b80202)" d="M10.166 9.447h0.21v0.406c-0.054 0.041-0.117 0.072-0.189 0.094-0.071 0.021-0.142 0.031-0.215 0.031-0.103 0-0.195-0.022-0.278-0.066s-0.148-0.105-0.195-0.184c-0.046-0.078-0.070-0.166-0.070-0.265s0.023-0.188 0.070-0.267c0.047-0.078 0.113-0.139 0.195-0.184s0.178-0.066 0.283-0.066c0.087 0 0.166 0.015 0.237 0.045s0.132 0.071 0.181 0.127l-0.147 0.137c-0.072-0.075-0.158-0.113-0.258-0.113-0.064 0-0.121 0.013-0.171 0.040s-0.087 0.064-0.114 0.113c-0.028 0.049-0.041 0.104-0.041 0.167s0.014 0.117 0.041 0.166c0.027 0.048 0.065 0.085 0.114 0.113s0.104 0.041 0.167 0.041c0.066 0 0.126-0.014 0.181-0.043v-0.293z"></path>
<path fill="#b80202" style="fill: var(--color1, #b80202)" d="M11.083 8.964h0.232v0.998h-0.232v-0.998z"></path>
<path fill="#b80202" style="fill: var(--color1, #b80202)" d="M12.25 9.152h-0.32v-0.189h0.871v0.189h-0.32v0.81h-0.232v-0.81z"></path>
<path fill="#b80202" style="fill: var(--color1, #b80202)" d="M14.075 9.749h-0.462l-0.089 0.214h-0.237l0.445-0.998h0.229l0.445 0.998h-0.242l-0.089-0.214zM14.002 9.573l-0.157-0.383-0.159 0.383h0.316z"></path>
<path fill="#b80202" style="fill: var(--color1, #b80202)" d="M15.002 8.964h0.232v0.81h0.5v0.189h-0.732v-0.998z"></path>
<path fill="#b80202" style="fill: var(--color1, #b80202)" d="M24.437 22.974h-0.462l-0.089 0.214h-0.237l0.445-0.998h0.229l0.445 0.998h-0.242l-0.089-0.214zM24.365 22.799l-0.157-0.383-0.159 0.383h0.316z"></path>
<path fill="#b80202" style="fill: var(--color1, #b80202)" d="M26.040 22.672h0.21v0.406c-0.054 0.041-0.117 0.072-0.189 0.094-0.071 0.021-0.142 0.031-0.215 0.031-0.103 0-0.195-0.022-0.278-0.066s-0.148-0.105-0.195-0.184c-0.046-0.078-0.070-0.166-0.070-0.265s0.023-0.188 0.070-0.267c0.047-0.078 0.113-0.14 0.195-0.184s0.178-0.066 0.283-0.066c0.087 0 0.166 0.015 0.237 0.045 0.072 0.029 0.132 0.071 0.181 0.128l-0.147 0.137c-0.072-0.075-0.158-0.113-0.258-0.113-0.064 0-0.121 0.013-0.171 0.040s-0.087 0.064-0.114 0.113c-0.028 0.049-0.041 0.104-0.041 0.167s0.014 0.117 0.041 0.166c0.027 0.048 0.065 0.085 0.114 0.113s0.104 0.041 0.167 0.041c0.066 0 0.126-0.014 0.18-0.043v-0.293z"></path>
<path fill="#b80202" style="fill: var(--color1, #b80202)" d="M27.73 23.003v0.185h-0.773v-0.998h0.755v0.185h-0.525v0.217h0.464v0.18h-0.464v0.23h0.543z"></path>
<path fill="#b80202" style="fill: var(--color1, #b80202)" d="M29.322 22.19v0.998h-0.189l-0.498-0.606v0.606h-0.229v-0.998h0.192l0.495 0.606v-0.606h0.229z"></path>
<path fill="#b80202" style="fill: var(--color1, #b80202)" d="M30.529 23.204c-0.102 0-0.194-0.022-0.277-0.066-0.082-0.044-0.147-0.105-0.194-0.184s-0.070-0.166-0.070-0.265c0-0.099 0.023-0.188 0.070-0.267s0.112-0.14 0.194-0.184c0.083-0.044 0.175-0.066 0.278-0.066 0.086 0 0.164 0.016 0.234 0.046s0.13 0.074 0.177 0.131l-0.149 0.136c-0.067-0.077-0.151-0.116-0.25-0.116-0.062 0-0.117 0.014-0.165 0.041s-0.087 0.064-0.114 0.113c-0.027 0.049-0.040 0.104-0.040 0.166s0.013 0.117 0.040 0.166c0.027 0.048 0.065 0.085 0.114 0.113s0.103 0.041 0.165 0.041c0.099 0 0.183-0.040 0.25-0.119l0.149 0.137c-0.048 0.058-0.107 0.102-0.177 0.132s-0.149 0.045-0.235 0.045z"></path>
<path fill="#b80202" style="fill: var(--color1, #b80202)" d="M32.068 22.834v0.354h-0.232v-0.356l-0.386-0.642h0.245l0.267 0.444 0.267-0.444h0.227l-0.387 0.644z"></path>
</symbol>

<symbol id="icon-arrow" viewBox="0 0 32 32">
<path fill="none" stroke="#b80202" style="stroke: var(--color1, #b80202)" stroke-linejoin="round" stroke-linecap="round" stroke-miterlimit="4" stroke-width="1.6" d="M25.333 11.333l-9.333 9.333-9.333-9.333"></path>
<path fill="none" stroke="#b80202" style="stroke: var(--color1, #b80202)" stroke-linejoin="miter" stroke-linecap="butt" stroke-miterlimit="4" stroke-width="1.0667" d="M0.533 0.533h30.933v30.933h-30.933v-30.933z"></path>
</symbol>

<symbol id="icon-not-arrow" viewBox="0 0 32 32">
<path fill="none" stroke="#b80202" style="stroke: var(--color1, #b80202)" stroke-linejoin="miter" stroke-linecap="butt" stroke-miterlimit="4" stroke-width="1.0667" d="M0.533 0.533h30.933v30.933h-30.933v-30.933z"></path>
</symbol>

</defs>
</svg>